<svg width="1142" height="675" viewBox="0 0 1142 675" fill="none" xmlns="http://www.w3.org/2000/svg">
<mask id="mask0" mask-type="alpha" maskUnits="userSpaceOnUse" x="0" y="0" width="1142" height="675">
<rect width="1142" height="675" fill="#C4C4C4"/>
</mask>
<g mask="url(#mask0)">
<rect x="-564.802" y="-124.421" width="2234.59" height="160.3" transform="rotate(45 -564.802 -124.421)" fill="#FF7255"/>
<rect x="-452.175" y="-237.048" width="2234.59" height="160.3" transform="rotate(45 -452.175 -237.048)" fill="#50549D"/>
<rect x="-677.429" y="-11.793" width="2234.59" height="160.3" transform="rotate(45 -677.429 -11.793)" fill="#FF9D47"/>
<rect x="-339.547" y="-349.674" width="2234.59" height="160.3" transform="rotate(45 -339.547 -349.674)" fill="#E5338B"/>
<rect x="-226.754" y="-462.911" width="2234.59" height="160.3" transform="rotate(45 -226.754 -462.911)" fill="#F861B8"/>
<rect x="-5.8877" y="-694.507" width="2270.96" height="160.3" transform="rotate(45 -5.8877 -694.507)" fill="#FF7255"/>
<rect x="106.74" y="-807.134" width="2270.96" height="160.3" transform="rotate(45 106.74 -807.134)" fill="#50549D"/>
<rect x="-118.515" y="-581.878" width="2270.96" height="160.3" transform="rotate(45 -118.515 -581.878)" fill="#FF9D47"/>
<rect x="219.368" y="-919.76" width="2270.96" height="160.3" transform="rotate(45 219.368 -919.76)" fill="#E5338B"/>
<rect x="332.157" y="-1033" width="2270.96" height="160.3" transform="rotate(45 332.157 -1033)" fill="#F861B8"/>
</g>
</svg>
